# xmcd CD database file
#
# Track frame offsets:
#	183
#	17760
#	33318
#	46308
#	59028
#	76363
#	92010
#	111408
#	124520
#	141563
#	156295
#	168828
#	180638
#	197565
#	207230
#	221720
#	233558
#
# Disc length: 3304 seconds
#
# Revision: 0
# Processed by: cddbd v1.5.1PL2 Copyright (c) Steve Scherf et al.
# Submitted via: CDex 1.51
#
DISCID=ee0ce611
DTITLE=Various Artist - Euro Country Music Masters 90
DYEAR=1990
DGENRE=Country
TTITLE0=Yellow Roses -  Marry Duff
TTITLE1=A Minute Of Your Time - Jeff Turner
TTITLE2=Anytime Your Feelin' Blue - Rawhide
TTITLE3=Heartbreaker - Sonja Linth and Band
TTITLE4=Cottoneyed Joe - Nashville Music Company
TTITLE5=Good Hearted Woman - Peter Tschening
TTITLE6=Til' I Gain Control Again - Mikael and Niza
TTITLE7=Thinking About You - Roger Humpries
TTITLE8=The Love She Put Me Through - J.G. Duke
TTITLE9=Tipperary On My Mind - Louise Morrissey
TTITLE10=Crazy - Twilight
TTITLE11=Easy Streer - Arne Benoni
TTITLE12=Ooh, Las Vegas - Aurora and Crossroads
TTITLE13=Seven Lonely Days - Hank Edwards
TTITLE14=T For Texas - Berni Pride 
TTITLE15=Short Road To Love - Nina Nova and Band
TTITLE16=Boogie Woogie Country Fiddle Blues - Coach 
EXTD=YEAR: 1990
EXTT0=
EXTT1=
EXTT2=
EXTT3=
EXTT4=
EXTT5=
EXTT6=
EXTT7=
EXTT8=
EXTT9=
EXTT10=
EXTT11=
EXTT12=
EXTT13=
EXTT14=
EXTT15=
EXTT16=
PLAYORDER=
